<?xml version="1.0" standalone="no"?>
<!DOCTYPE svg PUBLIC "-//W3C//DTD SVG 20010904//EN"
 "http://www.w3.org/TR/2001/REC-SVG-20010904/DTD/svg10.dtd">
<svg version="1.0" xmlns="http://www.w3.org/2000/svg"
 width="700.000000pt" height="700.000000pt" viewBox="0 0 700.000000 700.000000"
 preserveAspectRatio="xMidYMid meet">
<metadata>
Created by potrace 1.14, written by Peter Selinger 2001-2017
</metadata>
<g transform="translate(0.000000,700.000000) scale(0.100000,-0.100000)"
fill="#000000" stroke="none">
<path d="M0 3500 l0 -3500 3500 0 3500 0 0 3500 0 3500 -3500 0 -3500 0 0
-3500z m4299 2918 c-45 -90 -416 -824 -824 -1633 -1002 -1982 -1315 -2601
-1712 -3387 l-338 -668 -477 0 c-264 0 -478 4 -478 9 0 4 61 132 136 282 75
151 205 414 289 584 84 171 491 996 905 1835 414 839 828 1678 920 1865 92
187 271 550 398 808 l231 467 515 0 516 0 -81 -162z m1952 10 c-43 -84 -331
-652 -639 -1263 -1354 -2683 -2234 -4421 -2241 -4428 -4 -4 -221 -6 -483 -5
l-476 3 163 330 c156 318 1287 2611 1862 3775 153 311 409 829 568 1153 l290
587 517 0 517 0 -78 -152z"/>
</g>
</svg>
